<svg width="148" height="192" viewBox="0 0 148 192" fill="none" xmlns="http://www.w3.org/2000/svg">
<g filter="url(#filter0_d_5568_797)">
<path d="M22.0273 186C19.1723 186 16.685 185.305 14.5653 183.916C12.4457 182.527 10.7803 180.595 9.56909 178.12C8.40114 175.602 7.81716 172.693 7.81716 169.394C7.81716 166.094 8.40114 163.207 9.56909 160.732C10.7803 158.258 12.4457 156.347 14.5653 155.001C16.685 153.612 19.1723 152.918 22.0273 152.918C24.9688 152.918 27.521 153.612 29.6839 155.001C31.89 156.347 33.5987 158.258 34.8099 160.732C36.0211 163.207 36.6267 166.094 36.6267 169.394C36.6267 172.693 36.0211 175.602 34.8099 178.12C33.5987 180.595 31.89 182.527 29.6839 183.916C27.521 185.305 24.9688 186 22.0273 186ZM6.00034 185.349V141H11.489C12.0413 141 12.489 141.448 12.489 142V160.863H11.8401V178.967H12.489L11.1179 184.586C11.0086 185.034 10.6073 185.349 10.1464 185.349H6.00034ZM21.054 180.399C23.736 180.399 25.8988 179.401 27.5426 177.404C29.1864 175.363 30.0083 172.693 30.0083 169.394C30.0083 166.137 29.1864 163.511 27.5426 161.514C25.8988 159.517 23.736 158.518 21.054 158.518C18.4153 158.518 16.274 159.517 14.6302 161.514C12.9864 163.511 12.1645 166.159 12.1645 169.459C12.1645 172.758 12.9864 175.407 14.6302 177.404C16.274 179.401 18.4153 180.399 21.054 180.399Z" fill="#FBC320"/>
<path d="M61.0361 152.918C63.2855 152.918 65.0591 153.308 66.3568 154.09C67.6545 154.828 68.6062 155.848 69.2118 157.151C69.8174 158.41 70.2067 159.842 70.3797 161.449C70.5528 163.055 70.6393 164.705 70.6393 166.398V184.349C70.6393 184.901 70.1916 185.349 69.6393 185.349H64.1507V165.03C64.1507 162.773 63.6316 161.253 62.5934 160.472C61.5984 159.69 60.4089 159.3 59.0246 159.3C57.6404 159.3 56.2345 159.582 54.807 160.146C53.3795 160.711 52.1034 161.47 50.9787 162.425C49.854 163.381 48.9888 164.444 48.3832 165.616V161.97H49.4214V184.349C49.4214 184.901 48.9737 185.349 48.4214 185.349H42.9328V153.569H47.0783C47.5395 153.569 47.9409 153.884 48.0499 154.332L49.2268 159.169L47.6046 159.365C48.8158 157.975 50.1352 156.803 51.5627 155.848C52.9902 154.893 54.5042 154.177 56.1047 153.699C57.7053 153.178 59.349 152.918 61.0361 152.918Z" fill="#FBC320"/>
<path d="M92.196 186C88.9517 186 86.1399 185.305 83.7608 183.916C81.3816 182.483 79.5431 180.53 78.2454 178.055C76.9477 175.58 76.2988 172.715 76.2988 169.459C76.2988 166.203 76.9477 163.337 78.2454 160.863C79.5431 158.388 81.3816 156.456 83.7608 155.067C86.1399 153.634 88.9517 152.918 92.196 152.918C95.2673 152.918 98.0574 153.764 100.566 155.457C102.231 156.552 103.591 157.896 104.647 159.487C105.553 160.854 104.805 162.612 103.295 163.25L101.764 163.897C100.72 164.338 99.5426 163.804 98.9304 162.85C98.3352 161.922 97.6044 161.173 96.738 160.602C95.3538 159.647 93.7749 159.169 92.0013 159.169C89.4059 159.169 87.243 160.081 85.5127 161.904C83.7824 163.685 82.9172 166.203 82.9172 169.459C82.9172 172.715 83.7824 175.255 85.5127 177.078C87.243 178.858 89.4059 179.748 92.0013 179.748C93.7749 179.748 95.3538 179.292 96.738 178.381C97.6065 177.781 98.3387 177.011 98.9347 176.07C99.5413 175.113 100.72 174.579 101.764 175.021L103.259 175.652C104.783 176.296 105.525 178.078 104.601 179.451C103.528 181.047 102.162 182.405 100.501 183.525C98.0358 185.175 95.2673 186 92.196 186Z" fill="#FBC320"/>
<path d="M125.778 186C122.577 186 119.744 185.327 117.278 183.981C114.856 182.592 112.974 180.66 111.633 178.185C110.292 175.711 109.622 172.823 109.622 169.524C109.622 166.181 110.292 163.272 111.633 160.797C112.974 158.323 114.856 156.391 117.278 155.001C119.744 153.612 122.577 152.918 125.778 152.918C129.023 152.918 131.856 153.612 134.278 155.001C136.701 156.391 138.583 158.323 139.924 160.797C141.308 163.272 142 166.181 142 169.524C142 172.823 141.308 175.711 139.924 178.185C138.583 180.66 136.701 182.592 134.278 183.981C131.856 185.327 129.023 186 125.778 186ZM125.778 179.748C128.677 179.748 130.991 178.815 132.721 176.948C134.495 175.038 135.382 172.563 135.382 169.524C135.382 166.441 134.495 163.945 132.721 162.035C130.991 160.124 128.677 159.169 125.778 159.169C122.923 159.169 120.609 160.124 118.835 162.035C117.105 163.902 116.24 166.376 116.24 169.459C116.24 172.541 117.105 175.038 118.835 176.948C120.609 178.815 122.923 179.748 125.778 179.748Z" fill="#FBC320"/>
<path d="M13.039 155.419V142C13.039 141.144 12.345 140.45 11.489 140.45H6.00034H5.45034V141V185.349V185.899H6.00034H10.1464C10.8609 185.899 11.4828 185.41 11.6522 184.716L12.1495 182.678C12.7972 183.31 13.502 183.877 14.2638 184.376C16.4841 185.831 19.0792 186.55 22.0273 186.55C25.0577 186.55 27.7157 185.833 29.979 184.38C32.2756 182.933 34.0508 180.922 35.3039 178.362L35.3056 178.359C36.5585 175.754 37.1767 172.761 37.1767 169.394C37.1767 166.027 36.5586 163.054 35.3039 160.49C34.0508 157.93 32.2747 155.939 29.9758 154.535C27.7131 153.083 25.0562 152.368 22.0273 152.368C19.0806 152.368 16.4867 153.085 14.2672 154.539C13.8398 154.811 13.4304 155.104 13.039 155.419ZM49.9714 184.349V164.215C50.3678 163.737 50.8219 163.28 51.3347 162.845C52.4117 161.93 53.6354 161.201 55.0092 160.658C56.3793 160.116 57.7168 159.85 59.0246 159.85C60.298 159.85 61.3649 160.206 62.2536 160.904L62.2536 160.904L62.2626 160.911C63.0872 161.532 63.6007 162.822 63.6007 165.03V185.349V185.899H64.1507H69.6393C70.4953 185.899 71.1893 185.205 71.1893 184.349V166.398C71.1893 164.686 71.1018 163.017 70.9266 161.39C70.748 159.732 70.3448 158.238 69.709 156.915C69.0541 155.509 68.0235 154.406 66.6346 153.615C65.22 152.765 63.337 152.368 61.0361 152.368C59.2936 152.368 57.5945 152.636 55.9409 153.174C54.2886 153.668 52.7268 154.407 51.2568 155.391C50.5618 155.856 49.8925 156.37 49.2489 156.934L48.5843 154.202C48.4153 153.508 47.7932 153.019 47.0783 153.019H42.9328H42.3828V153.569V185.349V185.899H42.9328H48.4214C49.2775 185.899 49.9714 185.205 49.9714 184.349ZM83.477 184.387L83.4834 184.391C85.9606 185.838 88.8717 186.55 92.196 186.55C95.3721 186.55 98.2478 185.695 100.807 183.982L100.809 183.981C102.526 182.823 103.944 181.415 105.058 179.758C106.217 178.035 105.241 175.893 103.473 175.145L101.979 174.514C100.625 173.942 99.1814 174.653 98.47 175.776C97.9125 176.656 97.2325 177.37 96.4304 177.925C95.1436 178.771 93.673 179.198 92.0013 179.198C89.548 179.198 87.5305 178.364 85.9093 176.697C84.3036 175.003 83.4672 172.616 83.4672 169.459C83.4672 166.3 84.3047 163.936 85.9071 162.288L85.9117 162.283C87.5344 160.573 89.5512 159.719 92.0013 159.719C93.6698 159.719 95.1384 160.167 96.4257 161.055L96.4256 161.055L96.4355 161.061C97.2337 161.587 97.9111 162.279 98.4675 163.147C99.1835 164.263 100.624 164.976 101.979 164.403L103.509 163.757C105.259 163.017 106.245 160.902 105.105 159.184C104.008 157.528 102.594 156.133 100.871 155C98.2707 153.245 95.3741 152.368 92.196 152.368C88.8702 152.368 85.9579 153.102 83.4802 154.593C81.0121 156.035 79.1027 158.043 77.7583 160.607C76.4129 163.173 75.7488 166.128 75.7488 169.459C75.7488 172.789 76.4129 175.745 77.7583 178.31C79.1025 180.874 81.0111 182.902 83.477 184.387ZM117.005 184.458L117.005 184.458L117.015 184.464C119.572 185.86 122.498 186.55 125.778 186.55C129.1 186.55 132.029 185.86 134.546 184.462L134.552 184.458C137.063 183.018 139.016 181.013 140.405 178.451C141.841 175.882 142.55 172.901 142.55 169.524C142.55 166.105 141.842 163.102 140.405 160.532C139.016 157.97 137.063 155.964 134.552 154.524C132.034 153.08 129.103 152.368 125.778 152.368C122.495 152.368 119.567 153.081 117.008 154.522L117.005 154.524C114.493 155.965 112.539 157.972 111.15 160.535C109.757 163.104 109.072 166.107 109.072 169.524C109.072 172.899 109.758 175.879 111.15 178.447C112.539 181.011 114.493 183.018 117.005 184.458ZM132.318 176.574L132.318 176.574C130.707 178.313 128.547 179.198 125.778 179.198C123.059 179.198 120.896 178.316 119.239 176.574C117.62 174.784 116.79 172.43 116.79 169.459C116.79 166.484 117.622 164.153 119.239 162.409C120.898 160.622 123.06 159.719 125.778 159.719C128.543 159.719 130.701 160.624 132.314 162.404L132.318 162.409C133.98 164.199 134.832 166.553 134.832 169.524C134.832 172.449 133.982 174.782 132.318 176.574ZM27.1161 177.056C25.5814 178.92 23.5775 179.849 21.054 179.849C18.5758 179.849 16.5918 178.921 15.0549 177.054C13.5123 175.18 12.7145 172.667 12.7145 169.459C12.7145 166.251 13.5123 163.737 15.0549 161.863C16.5918 159.996 18.5758 159.068 21.054 159.068C23.5786 159.068 25.583 159.998 27.118 161.863C28.6616 163.739 29.4583 166.231 29.4583 169.394C29.4583 172.6 28.6614 175.137 27.1161 177.056Z" stroke="#FBC320" stroke-width="1.1"/>
</g>
<g filter="url(#filter1_d_5568_797)">
<path d="M73.5 29L73.5073 66.4631L87.8507 31.8545L73.5209 66.4689L100.016 39.9835L73.5312 66.4791L108.145 52.1493L73.5369 66.4927L111 66.5L73.5369 66.5073L108.145 80.8507L73.5312 66.5209L100.016 93.0164L73.5209 66.5312L87.8507 101.145L73.5073 66.5369L73.5 104L73.4927 66.5369L59.1493 101.145L73.4791 66.5312L46.9835 93.0164L73.4689 66.5209L38.8545 80.8507L73.4631 66.5073L36 66.5L73.4631 66.4927L38.8545 52.1493L73.4689 66.4791L46.9835 39.9835L73.4791 66.4689L59.1493 31.8545L73.4927 66.4631L73.5 29Z" fill="#FBC320" stroke="#FBC320" stroke-width="41" stroke-linejoin="round"/>
<path fill-rule="evenodd" clip-rule="evenodd" d="M130.477 36.1934C128.129 38.5407 125.317 40.1399 122.336 40.9909C118.345 42.1303 114.592 45.8827 113.453 49.8737C112.602 52.8544 111.003 55.6666 108.656 58.0139C106.308 60.3612 103.497 61.9604 100.516 62.8115C96.5249 63.9513 92.7718 67.7043 91.6321 71.6958C90.7811 74.6762 89.1821 77.488 86.8351 79.835C84.4879 82.1822 81.6758 83.7812 78.6952 84.6323C74.7039 85.7719 70.9513 89.5249 69.8114 93.5162C68.9603 96.4965 67.3611 99.3084 65.014 101.655C62.6669 104.003 59.8552 105.602 56.8748 106.453C52.8834 107.593 49.1303 111.346 47.9905 115.337C47.1395 118.318 45.5404 121.13 43.1934 123.477C35.8286 130.841 23.8883 130.841 16.5236 123.477C9.15881 116.112 9.15881 104.171 16.5236 96.8067C18.8709 94.4594 21.683 92.8603 24.6637 92.0093C28.6549 90.8697 32.4073 87.1171 33.5469 83.1259C34.3979 80.1453 35.997 77.3331 38.3443 74.9856C40.6915 72.6385 43.5035 71.0394 46.484 70.1884C50.4753 69.0488 54.2282 65.2962 55.3679 61.305C56.2189 58.3243 57.818 55.5123 60.1652 53.1651C62.5125 50.8178 65.3245 49.2187 68.3052 48.3677C72.2964 47.2281 76.0489 43.4753 77.1885 39.484C78.0394 36.5035 79.6385 33.6916 81.9857 31.3443C84.3327 28.9973 87.1446 27.3982 90.125 26.5471C94.1164 25.4073 97.8695 21.6542 99.0094 17.6628C99.8605 14.6825 101.46 11.8706 103.807 9.52354C111.171 2.15882 123.111 2.15882 130.477 9.52354C137.841 16.8883 137.841 28.8287 130.477 36.1934Z" fill="white"/>
</g>
<defs>
<filter id="filter0_d_5568_797" x="0.900391" y="135.9" width="146.2" height="55.1992" filterUnits="userSpaceOnUse" color-interpolation-filters="sRGB">
<feFlood flood-opacity="0" result="BackgroundImageFix"/>
<feColorMatrix in="SourceAlpha" type="matrix" values="0 0 0 0 0 0 0 0 0 0 0 0 0 0 0 0 0 0 127 0" result="hardAlpha"/>
<feOffset/>
<feGaussianBlur stdDeviation="2"/>
<feComposite in2="hardAlpha" operator="out"/>
<feColorMatrix type="matrix" values="0 0 0 0 0 0 0 0 0 0 0 0 0 0 0 0 0 0 0.05 0"/>
<feBlend mode="normal" in2="BackgroundImageFix" result="effect1_dropShadow_5568_797"/>
<feBlend mode="normal" in="SourceGraphic" in2="effect1_dropShadow_5568_797" result="shape"/>
</filter>
<filter id="filter1_d_5568_797" x="7" y="0" width="133" height="133" filterUnits="userSpaceOnUse" color-interpolation-filters="sRGB">
<feFlood flood-opacity="0" result="BackgroundImageFix"/>
<feColorMatrix in="SourceAlpha" type="matrix" values="0 0 0 0 0 0 0 0 0 0 0 0 0 0 0 0 0 0 127 0" result="hardAlpha"/>
<feOffset/>
<feGaussianBlur stdDeviation="2"/>
<feComposite in2="hardAlpha" operator="out"/>
<feColorMatrix type="matrix" values="0 0 0 0 0 0 0 0 0 0 0 0 0 0 0 0 0 0 0.25 0"/>
<feBlend mode="normal" in2="BackgroundImageFix" result="effect1_dropShadow_5568_797"/>
<feBlend mode="normal" in="SourceGraphic" in2="effect1_dropShadow_5568_797" result="shape"/>
</filter>
</defs>
</svg>
